<?xml version="1.0" encoding="UTF-8"?>
<svg xmlns="http://www.w3.org/2000/svg" xmlns:xlink="http://www.w3.org/1999/xlink" width="32px" height="32px" viewBox="0 0 32 32" version="1.1">
<g id="surface1">
<path style=" stroke:none;fill-rule:nonzero;fill:rgb(14.901961%,28.235295%,15.686275%);fill-opacity:1;" d="M 20.480469 1.066406 C 20.558594 1.09375 20.640625 1.121094 20.722656 1.148438 C 24.742188 2.503906 27.9375 5.257812 29.859375 9.039062 C 30.304688 9.945312 30.640625 10.875 30.933594 11.839844 C 30.964844 11.9375 30.996094 12.039062 31.03125 12.140625 C 32.121094 15.890625 31.398438 20.445312 29.550781 23.835938 C 28.515625 25.65625 27.09375 27.28125 25.460938 28.585938 C 25.394531 28.636719 25.332031 28.6875 25.265625 28.742188 C 24.953125 28.984375 24.707031 29.148438 24.320312 29.226562 C 24.320312 29.296875 24.320312 29.367188 24.320312 29.441406 C 22.023438 30.804688 19.457031 31.847656 16.746094 31.894531 C 16.636719 31.894531 16.527344 31.898438 16.414062 31.902344 C 16.0625 31.90625 15.710938 31.902344 15.359375 31.894531 C 15.234375 31.890625 15.105469 31.890625 14.976562 31.886719 C 10.886719 31.742188 7.113281 29.75 4.265625 26.878906 C 2.476562 24.910156 1.183594 22.5625 0.554688 19.980469 C 0.519531 19.84375 0.519531 19.84375 0.488281 19.707031 C -0.476562 15.507812 0.414062 10.96875 2.667969 7.359375 C 2.734375 7.25 2.800781 7.144531 2.871094 7.03125 C 3.175781 6.554688 3.175781 6.554688 3.308594 6.398438 C 3.378906 6.398438 3.449219 6.398438 3.519531 6.398438 C 3.542969 6.34375 3.566406 6.285156 3.589844 6.226562 C 4.238281 5.066406 5.449219 4.175781 6.507812 3.414062 C 6.570312 3.367188 6.636719 3.320312 6.703125 3.269531 C 10.574219 0.5 15.925781 -0.457031 20.480469 1.066406 Z M 20.480469 1.066406 "/>
<path style=" stroke:none;fill-rule:nonzero;fill:rgb(28.627452%,56.470591%,27.058825%);fill-opacity:1;" d="M 24.425781 7.679688 C 25.585938 10.71875 25.503906 14.558594 24.425781 17.601562 C 24.394531 17.691406 24.363281 17.785156 24.328125 17.878906 C 23.480469 20.234375 22.085938 22.515625 19.839844 23.785156 C 19.699219 23.785156 19.558594 23.785156 19.414062 23.785156 C 19.496094 23.058594 19.8125 22.628906 20.273438 22.078125 C 20.644531 21.632812 21.007812 21.179688 21.367188 20.71875 C 21.453125 20.609375 21.539062 20.5 21.625 20.386719 C 22.023438 19.835938 22.320312 19.300781 22.507812 18.640625 C 22.632812 18.199219 22.773438 17.773438 22.941406 17.347656 C 23.410156 16.066406 23.519531 14.800781 23.5 13.445312 C 23.5 13.296875 23.5 13.144531 23.496094 12.996094 C 23.488281 11.996094 23.433594 11.011719 23.253906 10.027344 C 21.117188 10.910156 19.3125 11.992188 17.605469 13.558594 C 17.507812 13.648438 17.507812 13.648438 17.40625 13.742188 C 16.546875 14.550781 15.667969 15.589844 15.621094 16.820312 C 15.648438 17.371094 15.773438 17.695312 16.105469 18.132812 C 16.382812 18.371094 16.609375 18.359375 16.960938 18.332031 C 17.25 18.285156 17.398438 18.234375 17.652344 18.074219 C 17.894531 17.683594 17.855469 17.414062 17.8125 16.960938 C 17.617188 16.722656 17.617188 16.722656 17.339844 16.707031 C 17.050781 16.71875 17.050781 16.71875 16.875 16.960938 C 16.8125 17.066406 16.8125 17.066406 16.746094 17.171875 C 16.605469 17.136719 16.464844 17.101562 16.320312 17.066406 C 16.257812 16.039062 16.257812 16.039062 16.640625 15.574219 C 17.117188 15.253906 17.574219 15.28125 18.132812 15.359375 C 18.519531 15.539062 18.730469 15.832031 18.972656 16.179688 C 19.191406 16.824219 19.203125 17.4375 18.90625 18.058594 C 18.566406 18.652344 18.261719 19.066406 17.601562 19.308594 C 16.890625 19.460938 16.324219 19.464844 15.671875 19.125 C 15.085938 18.734375 14.761719 18.167969 14.613281 17.492188 C 14.445312 16.097656 14.867188 14.867188 15.660156 13.738281 C 15.863281 13.449219 16.007812 13.207031 16.117188 12.871094 C 16.148438 12.777344 16.179688 12.683594 16.214844 12.585938 C 16.371094 12.535156 16.371094 12.535156 16.535156 12.480469 C 16.6875 12.328125 16.6875 12.328125 16.839844 12.132812 C 17.695312 11.132812 18.605469 10.183594 19.734375 9.492188 C 19.894531 9.390625 19.894531 9.390625 20.054688 9.289062 C 21.324219 8.523438 22.917969 7.644531 24.425781 7.679688 Z M 24.425781 7.679688 "/>
<path style=" stroke:none;fill-rule:nonzero;fill:rgb(15.294118%,41.176471%,20.392157%);fill-opacity:1;" d="M 8.214844 7.785156 C 8.847656 7.75 9.339844 7.875 9.933594 8.085938 C 10.023438 8.121094 10.117188 8.152344 10.210938 8.1875 C 12.394531 8.996094 14.179688 10.171875 15.804688 11.824219 C 15.859375 11.878906 15.910156 11.933594 15.964844 11.988281 C 16.125 12.179688 16.226562 12.355469 16.320312 12.585938 C 16.203125 13.152344 15.890625 13.605469 15.574219 14.078125 C 15.5 14.007812 15.429688 13.933594 15.351562 13.859375 C 15.277344 13.785156 15.277344 13.785156 15.203125 13.710938 C 15.097656 13.605469 14.992188 13.496094 14.890625 13.386719 C 13.515625 11.9375 11.507812 10.507812 9.492188 10.238281 C 9.015625 14.179688 9.429688 17.816406 11.84375 21.070312 C 12.085938 21.371094 12.347656 21.632812 12.628906 21.902344 C 13.046875 22.339844 13.382812 22.851562 13.441406 23.464844 C 13.511719 23.464844 13.582031 23.464844 13.652344 23.464844 C 13.652344 23.679688 13.652344 23.890625 13.652344 24.105469 C 11.726562 23.5 10.117188 21.917969 9.171875 20.152344 C 8.238281 18.320312 7.667969 16.414062 7.660156 14.34375 C 7.65625 14.246094 7.65625 14.148438 7.65625 14.050781 C 7.652344 13.738281 7.652344 13.425781 7.652344 13.113281 C 7.652344 13.007812 7.652344 12.902344 7.652344 12.792969 C 7.652344 9.011719 7.652344 9.011719 8.214844 7.785156 Z M 8.214844 7.785156 "/>
<path style=" stroke:none;fill-rule:nonzero;fill:rgb(19.215687%,46.27451%,21.176471%);fill-opacity:1;" d="M 21.972656 12.480469 C 22.046875 14.511719 21.890625 16.484375 21.011719 18.347656 C 20.957031 18.46875 20.898438 18.59375 20.839844 18.722656 C 20.039062 20.355469 18.851562 21.738281 17.601562 23.039062 C 17.519531 23.128906 17.4375 23.21875 17.355469 23.3125 C 17.28125 23.390625 17.210938 23.472656 17.132812 23.554688 C 17.070312 23.621094 17.007812 23.691406 16.945312 23.761719 C 16.746094 23.894531 16.746094 23.894531 16.46875 23.867188 C 16.214844 23.785156 16.214844 23.785156 16 23.679688 C 16 23.609375 16 23.539062 16 23.464844 C 15.941406 23.441406 15.886719 23.417969 15.828125 23.394531 C 15.148438 23.019531 14.675781 22.453125 14.1875 21.867188 C 14.109375 21.777344 14.035156 21.691406 13.957031 21.597656 C 12.492188 19.871094 11.5 17.929688 11.199219 15.679688 C 11.164062 15.644531 11.128906 15.609375 11.09375 15.574219 C 10.9375 14.625 10.976562 13.652344 10.988281 12.691406 C 11.589844 12.792969 12.097656 12.949219 12.480469 13.441406 C 12.796875 14.335938 12.855469 15.324219 12.964844 16.261719 C 13.246094 18.40625 14.515625 20.144531 16.058594 21.59375 C 16.214844 21.761719 16.214844 21.761719 16.214844 21.972656 C 16.777344 21.820312 17.121094 21.441406 17.492188 21.011719 C 17.527344 20.941406 17.5625 20.871094 17.601562 20.800781 C 17.671875 20.800781 17.742188 20.800781 17.8125 20.800781 C 17.835938 20.742188 17.863281 20.6875 17.886719 20.625 C 18.027344 20.375 18.027344 20.375 18.253906 20.113281 C 19.515625 18.625 20.324219 16.582031 20.25 14.613281 C 20.246094 14.539062 20.246094 14.464844 20.242188 14.386719 C 20.238281 14.234375 20.226562 14.082031 20.214844 13.929688 C 20.207031 13.714844 20.207031 13.714844 20.265625 13.332031 C 20.558594 13.082031 20.558594 13.082031 20.90625 12.90625 C 20.988281 12.863281 21.066406 12.816406 21.148438 12.773438 C 21.253906 12.71875 21.253906 12.71875 21.359375 12.667969 C 21.429688 12.632812 21.5 12.59375 21.574219 12.558594 C 21.761719 12.480469 21.761719 12.480469 21.972656 12.480469 Z M 21.972656 12.480469 "/>
<path style=" stroke:none;fill-rule:nonzero;fill:rgb(5.490196%,10.980392%,5.882353%);fill-opacity:1;" d="M 24.167969 4.734375 C 24.523438 5.019531 24.875 5.3125 25.21875 5.613281 C 25.363281 5.742188 25.519531 5.863281 25.671875 5.980469 C 26.144531 6.375 26.5 6.878906 26.878906 7.359375 C 27 7.507812 27 7.507812 27.121094 7.65625 C 29.25 10.355469 30.160156 13.855469 29.839844 17.261719 C 29.734375 18.101562 29.578125 18.921875 29.332031 19.734375 C 29.191406 19.769531 29.050781 19.804688 28.90625 19.839844 C 28.804688 19.4375 28.816406 19.175781 28.90625 18.773438 C 29.449219 15.804688 29.082031 13.128906 27.96875 10.355469 C 27.871094 10.101562 27.789062 9.867188 27.734375 9.601562 C 27.664062 9.601562 27.59375 9.601562 27.519531 9.601562 C 27.484375 9.5 27.445312 9.398438 27.40625 9.292969 C 26.855469 8.019531 25.816406 6.835938 24.640625 6.121094 C 24.417969 5.96875 24.285156 5.820312 24.121094 5.605469 C 23.308594 4.613281 22.117188 4.28125 20.941406 3.921875 C 20.699219 3.839844 20.457031 3.753906 20.214844 3.664062 C 20.136719 3.636719 20.058594 3.609375 19.980469 3.578125 C 19.835938 3.523438 19.691406 3.46875 19.550781 3.414062 C 18.304688 2.953125 16.996094 2.953125 15.6875 2.957031 C 15.410156 2.960938 15.136719 2.957031 14.859375 2.957031 C 14.683594 2.957031 14.507812 2.957031 14.328125 2.957031 C 14.207031 2.957031 14.207031 2.957031 14.082031 2.957031 C 13.640625 2.960938 13.308594 3.015625 12.90625 3.199219 C 12.691406 3.199219 12.480469 3.199219 12.265625 3.199219 C 11.84375 3.300781 11.476562 3.429688 11.09375 3.625 C 10.664062 3.828125 10.238281 4.019531 9.785156 4.167969 C 9.480469 4.269531 9.238281 4.417969 8.960938 4.585938 C 8.851562 4.613281 8.851562 4.613281 8.738281 4.640625 C 8.515625 4.683594 8.515625 4.683594 8.3125 4.867188 C 8.210938 4.9375 8.210938 4.9375 8.105469 5.011719 C 8 4.976562 7.894531 4.941406 7.785156 4.90625 C 9.363281 3.171875 12.058594 2.503906 14.292969 2.238281 C 14.367188 2.230469 14.441406 2.21875 14.515625 2.210938 C 17.796875 1.773438 21.527344 2.714844 24.167969 4.734375 Z M 24.167969 4.734375 "/>
<path style=" stroke:none;fill-rule:nonzero;fill:rgb(41.568628%,54.901963%,42.352942%);fill-opacity:1;" d="M 25.898438 4 C 28.347656 6.117188 30.390625 9.039062 31.039062 12.265625 C 31.054688 12.550781 31.042969 12.835938 31.039062 13.121094 C 30.796875 12.753906 30.707031 12.398438 30.59375 11.980469 C 30.328125 11.039062 29.972656 10.160156 29.546875 9.28125 C 29.515625 9.210938 29.480469 9.144531 29.445312 9.074219 C 28.617188 7.371094 27.441406 5.824219 25.964844 4.625 C 25.914062 4.578125 25.867188 4.53125 25.8125 4.480469 C 25.8125 4.410156 25.8125 4.339844 25.8125 4.265625 C 25.757812 4.242188 25.699219 4.214844 25.640625 4.1875 C 25.316406 4.015625 25.019531 3.804688 24.71875 3.59375 C 23.917969 3.027344 23.128906 2.519531 22.21875 2.140625 C 22.132812 2.105469 22.046875 2.066406 21.957031 2.03125 C 19.949219 1.214844 17.941406 0.859375 15.785156 0.746094 C 15.785156 0.710938 15.785156 0.675781 15.785156 0.640625 C 19.414062 0.140625 23.144531 1.675781 25.898438 4 Z M 25.898438 4 "/>
<path style=" stroke:none;fill-rule:nonzero;fill:rgb(9.411765%,14.117648%,9.803922%);fill-opacity:1;" d="M 1.8125 8.851562 C 1.941406 9.238281 1.859375 9.34375 1.695312 9.699219 C 1.554688 10.03125 1.460938 10.375 1.359375 10.722656 C 1.289062 10.960938 1.203125 11.1875 1.113281 11.421875 C 0.796875 12.246094 0.699219 13.101562 0.625 13.980469 C 0.617188 14.089844 0.609375 14.195312 0.601562 14.308594 C 0.300781 18.136719 1.066406 22.308594 3.566406 25.359375 C 3.617188 25.417969 3.664062 25.476562 3.714844 25.535156 C 3.945312 25.8125 3.945312 25.8125 3.945312 26.027344 C 4.015625 26.027344 4.085938 26.027344 4.160156 26.027344 C 4.1875 26.109375 4.210938 26.195312 4.238281 26.28125 C 4.398438 26.613281 4.480469 26.617188 4.800781 26.773438 C 4.992188 26.976562 5.160156 27.191406 5.332031 27.414062 C 5.261719 27.484375 5.191406 27.554688 5.121094 27.625 C 2.800781 25.777344 1.246094 22.824219 0.554688 19.980469 C 0.519531 19.84375 0.519531 19.84375 0.488281 19.707031 C -0.296875 16.304688 0.152344 12.34375 1.601562 9.171875 C 1.671875 9.066406 1.742188 8.960938 1.8125 8.851562 Z M 1.8125 8.851562 "/>
<path style=" stroke:none;fill-rule:nonzero;fill:rgb(8.627451%,16.862746%,9.411765%);fill-opacity:1;" d="M 13.867188 2.347656 C 13.867188 2.382812 13.867188 2.417969 13.867188 2.453125 C 14.003906 2.457031 14.003906 2.457031 14.144531 2.457031 C 14.492188 2.464844 14.84375 2.472656 15.191406 2.480469 C 15.339844 2.484375 15.492188 2.488281 15.640625 2.492188 C 16.722656 2.507812 17.71875 2.636719 18.773438 2.878906 C 18.886719 2.902344 19 2.925781 19.117188 2.953125 C 19.769531 3.089844 20.367188 3.316406 20.980469 3.578125 C 21.054688 3.613281 21.132812 3.644531 21.207031 3.679688 C 21.746094 3.917969 21.746094 3.917969 21.867188 4.160156 C 21.414062 4.082031 20.988281 3.949219 20.554688 3.800781 C 20.480469 3.777344 20.410156 3.753906 20.335938 3.726562 C 19.984375 3.609375 19.636719 3.484375 19.292969 3.339844 C 18.148438 2.914062 16.886719 2.953125 15.6875 2.957031 C 15.410156 2.960938 15.136719 2.957031 14.859375 2.957031 C 14.683594 2.957031 14.507812 2.957031 14.328125 2.957031 C 14.207031 2.957031 14.207031 2.957031 14.082031 2.957031 C 13.640625 2.960938 13.308594 3.015625 12.90625 3.199219 C 12.691406 3.199219 12.480469 3.199219 12.265625 3.199219 C 11.84375 3.300781 11.476562 3.429688 11.09375 3.625 C 10.664062 3.828125 10.238281 4.019531 9.785156 4.167969 C 9.480469 4.269531 9.238281 4.417969 8.960938 4.585938 C 8.851562 4.613281 8.851562 4.613281 8.738281 4.640625 C 8.515625 4.683594 8.515625 4.683594 8.3125 4.867188 C 8.210938 4.9375 8.210938 4.9375 8.105469 5.011719 C 8 4.976562 7.894531 4.941406 7.785156 4.90625 C 8.203125 4.445312 8.644531 4.152344 9.1875 3.851562 C 9.269531 3.808594 9.351562 3.761719 9.4375 3.714844 C 10.773438 3 12.328125 2.324219 13.867188 2.347656 Z M 13.867188 2.347656 "/>
<path style=" stroke:none;fill-rule:nonzero;fill:rgb(29.411766%,43.921569%,29.803923%);fill-opacity:1;" d="M 2.453125 19.519531 C 2.695312 19.761719 2.753906 19.96875 2.851562 20.289062 C 3.773438 23.1875 5.746094 25.875 8.320312 27.519531 C 8.410156 27.578125 8.410156 27.578125 8.5 27.636719 C 10.152344 28.707031 11.847656 29.25 13.761719 29.652344 C 13.835938 29.671875 13.914062 29.691406 13.992188 29.710938 C 14.429688 29.78125 14.859375 29.773438 15.300781 29.769531 C 15.398438 29.769531 15.496094 29.769531 15.59375 29.769531 C 15.902344 29.769531 16.207031 29.769531 16.511719 29.765625 C 16.722656 29.765625 16.929688 29.765625 17.136719 29.765625 C 17.648438 29.765625 18.15625 29.761719 18.667969 29.761719 C 17.492188 30.542969 14.605469 30.222656 13.230469 29.960938 C 12.867188 29.875 12.515625 29.769531 12.160156 29.652344 C 12.085938 29.632812 12.011719 29.609375 11.9375 29.585938 C 8.175781 28.445312 5.261719 25.832031 3.417969 22.402344 C 2.9375 21.476562 2.554688 20.566406 2.453125 19.519531 Z M 2.453125 19.519531 "/>
<path style=" stroke:none;fill-rule:nonzero;fill:rgb(5.882353%,23.137255%,9.803922%);fill-opacity:1;" d="M 23.253906 10.027344 C 23.285156 10.191406 23.320312 10.355469 23.351562 10.519531 C 23.371094 10.613281 23.390625 10.703125 23.410156 10.796875 C 23.5625 11.589844 23.597656 12.347656 23.597656 13.152344 C 23.601562 13.375 23.601562 13.601562 23.605469 13.824219 C 23.617188 15.21875 23.390625 16.515625 22.875 17.820312 C 22.808594 17.988281 22.742188 18.15625 22.679688 18.324219 C 22.632812 18.4375 22.632812 18.4375 22.589844 18.558594 C 22.515625 18.75 22.449219 18.945312 22.386719 19.140625 C 22.285156 19.433594 22.203125 19.539062 21.972656 19.734375 C 21.597656 20.09375 21.292969 20.488281 20.980469 20.902344 C 20.800781 21.121094 20.800781 21.121094 20.480469 21.332031 C 20.640625 20.988281 20.839844 20.691406 21.058594 20.378906 C 21.507812 19.753906 21.828125 19.171875 22.078125 18.445312 C 22.121094 18.328125 22.121094 18.328125 22.164062 18.203125 C 22.359375 17.632812 22.523438 17.0625 22.652344 16.472656 C 22.71875 16.214844 22.71875 16.214844 22.824219 16.011719 C 23.21875 15.199219 23.179688 14.238281 23.171875 13.351562 C 23.171875 13.230469 23.171875 13.109375 23.171875 12.984375 C 23.160156 12.003906 23.070312 11.085938 22.828125 10.132812 C 23.039062 10.027344 23.039062 10.027344 23.253906 10.027344 Z M 23.253906 10.027344 "/>
<path style=" stroke:none;fill-rule:nonzero;fill:rgb(4.705882%,17.254902%,6.666667%);fill-opacity:1;" d="M 15.679688 16.320312 C 15.785156 16.355469 15.890625 16.390625 16 16.425781 C 16.070312 16.390625 16.140625 16.355469 16.214844 16.320312 C 16.242188 16.441406 16.269531 16.5625 16.300781 16.6875 C 16.363281 16.875 16.363281 16.875 16.425781 17.066406 C 16.53125 17.101562 16.636719 17.136719 16.746094 17.171875 C 16.78125 17.105469 16.8125 17.035156 16.847656 16.964844 C 16.960938 16.746094 16.960938 16.746094 17.066406 16.640625 C 17.355469 16.609375 17.539062 16.605469 17.792969 16.746094 C 17.996094 17.089844 17.996094 17.429688 17.921875 17.8125 C 17.707031 18.128906 17.546875 18.296875 17.179688 18.414062 C 16.824219 18.476562 16.570312 18.46875 16.234375 18.332031 C 15.871094 18.023438 15.695312 17.75 15.648438 17.269531 C 15.652344 17.15625 15.65625 17.042969 15.660156 16.925781 C 15.664062 16.8125 15.664062 16.699219 15.667969 16.582031 C 15.671875 16.496094 15.675781 16.410156 15.679688 16.320312 Z M 15.679688 16.320312 "/>
<path style=" stroke:none;fill-rule:nonzero;fill:rgb(5.098039%,21.176471%,8.627451%);fill-opacity:1;" d="M 20.265625 13.441406 C 20.300781 13.441406 20.335938 13.441406 20.375 13.441406 C 20.433594 15.882812 19.972656 18.242188 18.347656 20.160156 C 18.253906 19.90625 18.214844 19.785156 18.332031 19.535156 C 18.378906 19.46875 18.425781 19.402344 18.472656 19.332031 C 19.015625 18.550781 19.320312 17.722656 19.585938 16.8125 C 19.636719 16.644531 19.636719 16.644531 19.6875 16.476562 C 19.925781 15.617188 20.0625 14.777344 20.128906 13.886719 C 20.160156 13.546875 20.160156 13.546875 20.265625 13.441406 Z M 20.265625 13.441406 "/>
<path style=" stroke:none;fill-rule:nonzero;fill:rgb(4.313726%,18.431373%,7.058824%);fill-opacity:1;" d="M 14.828125 14.078125 C 15.003906 14.078125 15.183594 14.078125 15.359375 14.078125 C 15.328125 14.171875 15.300781 14.261719 15.265625 14.355469 C 14.605469 16.335938 14.605469 16.335938 15.011719 18.332031 C 15.277344 18.78125 15.609375 19.035156 16.105469 19.199219 C 16.105469 19.269531 16.105469 19.339844 16.105469 19.414062 C 16.421875 19.449219 16.742188 19.484375 17.066406 19.519531 C 17.03125 19.589844 16.996094 19.660156 16.960938 19.734375 C 16.804688 19.722656 16.652344 19.710938 16.5 19.699219 C 16.371094 19.691406 16.371094 19.691406 16.242188 19.679688 C 15.957031 19.617188 15.871094 19.523438 15.679688 19.308594 C 15.578125 19.246094 15.472656 19.183594 15.367188 19.121094 C 14.640625 18.585938 14.492188 17.796875 14.292969 16.960938 C 14.1875 17.222656 14.1875 17.222656 14.078125 17.492188 C 13.851562 16.804688 14.113281 16.207031 14.398438 15.574219 C 14.476562 15.324219 14.546875 15.078125 14.613281 14.828125 C 14.652344 14.6875 14.691406 14.546875 14.734375 14.40625 C 14.78125 14.246094 14.78125 14.246094 14.828125 14.078125 Z M 14.828125 14.078125 "/>
<path style=" stroke:none;fill-rule:nonzero;fill:rgb(16.862746%,42.352942%,18.039216%);fill-opacity:1;" d="M 21.867188 10.667969 C 22.078125 10.667969 22.289062 10.667969 22.507812 10.667969 C 22.449219 10.695312 22.386719 10.722656 22.328125 10.753906 C 22.058594 10.890625 21.804688 11.042969 21.546875 11.199219 C 21.230469 11.390625 20.917969 11.570312 20.585938 11.734375 C 19.445312 12.316406 18.480469 13.042969 17.605469 13.980469 C 17.140625 14.46875 17.140625 14.46875 16.746094 14.507812 C 16.96875 14.011719 17.316406 13.699219 17.707031 13.332031 C 17.796875 13.246094 17.796875 13.246094 17.890625 13.160156 C 18.359375 12.730469 18.863281 12.351562 19.375 11.972656 C 19.441406 11.921875 19.507812 11.871094 19.578125 11.820312 C 20.128906 11.417969 20.652344 11.089844 21.332031 10.988281 C 21.511719 10.949219 21.6875 10.914062 21.867188 10.878906 C 21.867188 10.808594 21.867188 10.738281 21.867188 10.667969 Z M 21.867188 10.667969 "/>
<path style=" stroke:none;fill-rule:nonzero;fill:rgb(31.37255%,43.137255%,31.764707%);fill-opacity:1;" d="M 16.640625 0.425781 C 16.691406 0.53125 16.691406 0.53125 16.746094 0.640625 C 16.671875 0.644531 16.601562 0.648438 16.527344 0.652344 C 14.535156 0.773438 12.617188 0.980469 10.722656 1.628906 C 10.453125 1.707031 10.453125 1.707031 10.027344 1.707031 C 10.027344 1.636719 10.027344 1.566406 10.027344 1.492188 C 12.222656 0.664062 14.300781 0.398438 16.640625 0.425781 Z M 16.640625 0.425781 "/>
<path style=" stroke:none;fill-rule:nonzero;fill:rgb(5.098039%,10.980392%,5.098039%);fill-opacity:1;" d="M 13.652344 23.679688 C 13.753906 23.769531 13.855469 23.855469 13.960938 23.945312 C 14.78125 24.644531 15.589844 25.285156 16.535156 25.8125 C 16.390625 25.976562 16.390625 25.976562 16.214844 26.132812 C 15.925781 26.101562 15.925781 26.101562 15.679688 26.027344 C 15.679688 25.957031 15.679688 25.886719 15.679688 25.8125 C 15.613281 25.800781 15.542969 25.792969 15.472656 25.78125 C 15.402344 25.753906 15.328125 25.730469 15.253906 25.707031 C 15.21875 25.601562 15.183594 25.496094 15.148438 25.386719 C 14.9375 25.308594 14.722656 25.238281 14.507812 25.171875 C 14.402344 25.101562 14.296875 25.03125 14.1875 24.960938 C 14.1875 24.820312 14.1875 24.679688 14.1875 24.535156 C 13.75 24.425781 13.75 24.425781 13.332031 24.535156 C 13.382812 24.441406 13.382812 24.441406 13.433594 24.347656 C 13.539062 24.121094 13.597656 23.917969 13.652344 23.679688 Z M 13.652344 23.679688 "/>
<path style=" stroke:none;fill-rule:nonzero;fill:rgb(4.705882%,21.960784%,7.843138%);fill-opacity:1;" d="M 23.253906 10.027344 C 23.285156 10.191406 23.320312 10.355469 23.351562 10.519531 C 23.371094 10.613281 23.390625 10.703125 23.410156 10.796875 C 23.558594 11.5625 23.59375 12.285156 23.59375 13.066406 C 23.59375 13.1875 23.597656 13.304688 23.597656 13.425781 C 23.597656 14.503906 23.597656 14.503906 23.359375 15.039062 C 23.324219 15.039062 23.289062 15.039062 23.253906 15.039062 C 23.25 14.953125 23.25 14.867188 23.246094 14.777344 C 23.238281 14.449219 23.230469 14.121094 23.21875 13.792969 C 23.214844 13.585938 23.207031 13.375 23.203125 13.167969 C 23.171875 12.140625 23.089844 11.128906 22.828125 10.132812 C 23.039062 10.027344 23.039062 10.027344 23.253906 10.027344 Z M 23.253906 10.027344 "/>
<path style=" stroke:none;fill-rule:nonzero;fill:rgb(9.803922%,17.254902%,10.196079%);fill-opacity:1;" d="M 29.226562 14.1875 C 29.261719 14.1875 29.296875 14.1875 29.332031 14.1875 C 29.515625 15.621094 29.542969 16.914062 29.332031 18.347656 C 29.332031 18.453125 29.332031 18.558594 29.332031 18.667969 C 29.402344 18.667969 29.472656 18.667969 29.546875 18.667969 C 29.476562 19.019531 29.40625 19.371094 29.332031 19.734375 C 29.121094 19.785156 29.121094 19.785156 28.90625 19.839844 C 28.804688 19.4375 28.816406 19.175781 28.90625 18.773438 C 29.097656 17.75 29.164062 16.742188 29.1875 15.699219 C 29.191406 15.550781 29.195312 15.40625 29.199219 15.257812 C 29.210938 14.898438 29.21875 14.542969 29.226562 14.1875 Z M 29.226562 14.1875 "/>
<path style=" stroke:none;fill-rule:nonzero;fill:rgb(37.64706%,52.549022%,38.039216%);fill-opacity:1;" d="M 29.332031 8.214844 C 29.625 8.570312 29.820312 8.953125 30.011719 9.367188 C 30.046875 9.4375 30.078125 9.503906 30.109375 9.578125 C 30.625 10.710938 31.0625 11.867188 31.039062 13.121094 C 30.796875 12.753906 30.707031 12.398438 30.59375 11.980469 C 30.308594 10.960938 29.917969 9.976562 29.417969 9.039062 C 29.292969 8.765625 29.320312 8.511719 29.332031 8.214844 Z M 29.332031 8.214844 "/>
<path style=" stroke:none;fill-rule:nonzero;fill:rgb(9.803922%,18.431373%,9.411765%);fill-opacity:1;" d="M 30.507812 21.011719 C 30.648438 21.441406 30.507812 21.710938 30.351562 22.113281 C 30.324219 22.1875 30.296875 22.265625 30.265625 22.34375 C 29.492188 24.289062 28.214844 25.921875 26.773438 27.414062 C 26.773438 26.988281 26.910156 26.914062 27.199219 26.613281 C 27.714844 26.058594 28.15625 25.476562 28.585938 24.851562 C 28.648438 24.765625 28.710938 24.683594 28.773438 24.59375 C 29.515625 23.5 30.027344 22.242188 30.507812 21.011719 Z M 30.507812 21.011719 "/>
<path style=" stroke:none;fill-rule:nonzero;fill:rgb(22.745098%,37.64706%,23.921569%);fill-opacity:1;" d="M 22.292969 28.375 C 22.363281 28.410156 22.433594 28.445312 22.507812 28.480469 C 20.730469 29.472656 19 30 16.960938 29.867188 C 16.960938 29.832031 16.960938 29.796875 16.960938 29.761719 C 17.085938 29.742188 17.210938 29.726562 17.339844 29.707031 C 18.460938 29.550781 19.515625 29.3125 20.59375 28.96875 C 20.8125 28.902344 21.035156 28.847656 21.257812 28.796875 C 21.65625 28.707031 21.65625 28.707031 22.011719 28.511719 C 22.152344 28.445312 22.152344 28.445312 22.292969 28.375 Z M 22.292969 28.375 "/>
<path style=" stroke:none;fill-rule:nonzero;fill:rgb(12.54902%,36.862746%,12.941177%);fill-opacity:1;" d="M 21.972656 19.625 C 22.007812 19.695312 22.042969 19.765625 22.078125 19.839844 C 21.527344 20.628906 20.9375 21.378906 20.316406 22.117188 C 19.988281 22.511719 19.730469 22.886719 19.519531 23.359375 C 19.449219 23.175781 19.449219 23.175781 19.414062 22.933594 C 19.515625 22.714844 19.515625 22.714844 19.679688 22.488281 C 19.738281 22.402344 19.800781 22.316406 19.859375 22.230469 C 20.101562 21.910156 20.34375 21.59375 20.59375 21.277344 C 20.921875 20.855469 21.238281 20.421875 21.554688 19.988281 C 21.761719 19.734375 21.761719 19.734375 21.972656 19.625 Z M 21.972656 19.625 "/>
<path style=" stroke:none;fill-rule:nonzero;fill:rgb(27.058825%,41.568628%,27.843139%);fill-opacity:1;" d="M 2.453125 19.519531 C 2.695312 19.761719 2.753906 19.96875 2.851562 20.289062 C 3.300781 21.699219 4.035156 22.953125 4.800781 24.214844 C 4.695312 24.214844 4.589844 24.214844 4.480469 24.214844 C 4.347656 24.050781 4.347656 24.050781 4.214844 23.824219 C 4.140625 23.695312 4.140625 23.695312 4.066406 23.570312 C 4.015625 23.476562 3.964844 23.386719 3.914062 23.292969 C 3.859375 23.203125 3.808594 23.109375 3.753906 23.015625 C 2.390625 20.578125 2.390625 20.578125 2.453125 19.519531 Z M 2.453125 19.519531 "/>
<path style=" stroke:none;fill-rule:nonzero;fill:rgb(10.196079%,19.215687%,10.588235%);fill-opacity:1;" d="M 17.492188 2.878906 C 19.058594 2.9375 20.34375 3.238281 21.761719 3.945312 C 21.8125 4.050781 21.8125 4.050781 21.867188 4.160156 C 21.414062 4.082031 20.988281 3.949219 20.554688 3.800781 C 20.480469 3.777344 20.410156 3.753906 20.335938 3.726562 C 19.984375 3.609375 19.636719 3.484375 19.292969 3.339844 C 18.722656 3.117188 18.097656 3.066406 17.492188 2.988281 C 17.492188 2.953125 17.492188 2.917969 17.492188 2.878906 Z M 17.492188 2.878906 "/>
<path style=" stroke:none;fill-rule:nonzero;fill:rgb(12.54902%,20%,12.156863%);fill-opacity:1;" d="M 15.542969 31.5625 C 15.65625 31.5625 15.65625 31.5625 15.777344 31.5625 C 16.023438 31.5625 16.269531 31.566406 16.511719 31.566406 C 16.679688 31.566406 16.847656 31.566406 17.015625 31.566406 C 17.421875 31.570312 17.832031 31.570312 18.238281 31.574219 C 18.203125 31.644531 18.167969 31.714844 18.132812 31.785156 C 16.84375 32 15.480469 31.933594 14.1875 31.785156 C 14.1875 31.75 14.1875 31.714844 14.1875 31.679688 C 14.640625 31.570312 15.078125 31.558594 15.542969 31.5625 Z M 15.542969 31.5625 "/>
<path style=" stroke:none;fill-rule:nonzero;fill:rgb(9.411765%,31.37255%,12.54902%);fill-opacity:1;" d="M 20.054688 13.652344 C 20.332031 14.554688 20.058594 15.550781 19.808594 16.433594 C 19.785156 16.511719 19.765625 16.589844 19.742188 16.667969 C 19.605469 17.117188 19.457031 17.40625 19.09375 17.707031 C 19.066406 17.359375 19.066406 17.359375 19.09375 16.960938 C 19.308594 16.746094 19.308594 16.746094 19.519531 16.535156 C 19.523438 16.285156 19.523438 16.035156 19.519531 15.785156 C 19.570312 15.722656 19.621094 15.660156 19.675781 15.597656 C 19.90625 15.265625 19.890625 15 19.90625 14.601562 C 19.9375 13.882812 19.9375 13.882812 20.054688 13.652344 Z M 20.054688 13.652344 "/>
<path style=" stroke:none;fill-rule:nonzero;fill:rgb(37.254903%,67.058825%,33.333334%);fill-opacity:1;" d="M 21.972656 12.480469 C 21.972656 13.148438 21.972656 13.816406 21.972656 14.507812 C 21.9375 14.507812 21.902344 14.507812 21.867188 14.507812 C 21.867188 13.910156 21.867188 13.308594 21.867188 12.691406 C 21.183594 13.007812 21.183594 13.007812 20.585938 13.441406 C 20.5 13.773438 20.515625 14.011719 20.5625 14.351562 C 20.585938 14.613281 20.585938 14.613281 20.375 14.933594 C 20.339844 14.40625 20.304688 13.878906 20.265625 13.332031 C 20.996094 12.847656 20.996094 12.847656 21.359375 12.667969 C 21.429688 12.632812 21.5 12.59375 21.574219 12.558594 C 21.761719 12.480469 21.761719 12.480469 21.972656 12.480469 Z M 21.972656 12.480469 "/>
<path style=" stroke:none;fill-rule:nonzero;fill:rgb(16.470589%,43.921569%,20.392157%);fill-opacity:1;" d="M 21.867188 10.667969 C 22.078125 10.667969 22.289062 10.667969 22.507812 10.667969 C 22.449219 10.695312 22.386719 10.722656 22.328125 10.753906 C 22.058594 10.890625 21.804688 11.042969 21.546875 11.199219 C 21.296875 11.351562 21.050781 11.5 20.785156 11.632812 C 20.558594 11.742188 20.558594 11.742188 20.261719 11.964844 C 20.105469 12.0625 20.105469 12.0625 19.945312 12.160156 C 19.839844 12.125 19.734375 12.089844 19.625 12.054688 C 19.683594 12.011719 19.742188 11.96875 19.800781 11.925781 C 19.878906 11.867188 19.953125 11.8125 20.035156 11.753906 C 20.109375 11.699219 20.183594 11.640625 20.261719 11.585938 C 20.480469 11.421875 20.480469 11.421875 20.652344 11.234375 C 20.863281 11.035156 21.046875 11.027344 21.332031 10.988281 C 21.601562 10.933594 21.601562 10.933594 21.867188 10.878906 C 21.867188 10.808594 21.867188 10.738281 21.867188 10.667969 Z M 21.867188 10.667969 "/>
<path style=" stroke:none;fill-rule:nonzero;fill:rgb(36.470589%,49.019608%,37.254903%);fill-opacity:1;" d="M 18.878906 0.640625 C 18.84375 0.746094 18.808594 0.851562 18.773438 0.960938 C 17.296875 0.855469 17.296875 0.855469 15.785156 0.746094 C 15.785156 0.710938 15.785156 0.675781 15.785156 0.640625 C 16.8125 0.5 17.859375 0.445312 18.878906 0.640625 Z M 18.878906 0.640625 "/>
<path style=" stroke:none;fill-rule:nonzero;fill:rgb(25.882354%,38.039216%,25.098041%);fill-opacity:1;" d="M 12.265625 0.960938 C 12.265625 1.03125 12.265625 1.101562 12.265625 1.171875 C 11.972656 1.261719 11.679688 1.351562 11.386719 1.441406 C 11.304688 1.464844 11.222656 1.492188 11.136719 1.515625 C 11.015625 1.554688 11.015625 1.554688 10.890625 1.589844 C 10.78125 1.625 10.78125 1.625 10.667969 1.65625 C 10.453125 1.707031 10.453125 1.707031 10.027344 1.707031 C 10.027344 1.636719 10.027344 1.566406 10.027344 1.492188 C 10.320312 1.382812 10.613281 1.273438 10.90625 1.167969 C 10.988281 1.136719 11.074219 1.105469 11.15625 1.070312 C 11.277344 1.027344 11.277344 1.027344 11.402344 0.984375 C 11.476562 0.957031 11.550781 0.929688 11.625 0.898438 C 11.875 0.847656 12.027344 0.878906 12.265625 0.960938 Z M 12.265625 0.960938 "/>
<path style=" stroke:none;fill-rule:nonzero;fill:rgb(4.313726%,15.686275%,6.27451%);fill-opacity:1;" d="M 20.375 21.332031 C 20.375 21.734375 20.265625 21.8125 20.019531 22.121094 C 19.566406 22.738281 19.429688 23.359375 19.308594 24.105469 C 19.140625 23.917969 19.140625 23.917969 18.988281 23.679688 C 19.152344 22.730469 19.777344 22.058594 20.375 21.332031 Z M 20.375 21.332031 "/>
<path style=" stroke:none;fill-rule:nonzero;fill:rgb(13.333334%,37.64706%,16.862746%);fill-opacity:1;" d="M 22.71875 10.132812 C 22.789062 10.203125 22.859375 10.273438 22.933594 10.347656 C 22.898438 10.488281 22.863281 10.628906 22.828125 10.773438 C 22.511719 10.738281 22.191406 10.703125 21.867188 10.667969 C 21.867188 10.738281 21.867188 10.808594 21.867188 10.878906 C 21.160156 11.214844 21.160156 11.214844 20.800781 11.09375 C 21.058594 10.953125 21.320312 10.8125 21.578125 10.671875 C 21.652344 10.632812 21.726562 10.59375 21.804688 10.550781 C 21.875 10.515625 21.945312 10.476562 22.019531 10.4375 C 22.117188 10.382812 22.117188 10.382812 22.214844 10.332031 C 22.398438 10.238281 22.398438 10.238281 22.71875 10.132812 Z M 22.71875 10.132812 "/>
<path style=" stroke:none;fill-rule:nonzero;fill:rgb(20.784314%,34.901962%,20.784314%);fill-opacity:1;" d="M 22.292969 28.375 C 22.363281 28.410156 22.433594 28.445312 22.507812 28.480469 C 22.273438 28.601562 22.039062 28.71875 21.808594 28.839844 C 21.742188 28.875 21.675781 28.90625 21.609375 28.941406 C 21.007812 29.246094 20.417969 29.480469 19.734375 29.441406 C 19.734375 29.371094 19.734375 29.300781 19.734375 29.226562 C 19.933594 29.15625 20.132812 29.089844 20.332031 29.019531 C 20.5 28.960938 20.5 28.960938 20.671875 28.902344 C 21.011719 28.800781 21.011719 28.800781 21.355469 28.742188 C 21.671875 28.707031 21.671875 28.707031 22 28.519531 C 22.097656 28.472656 22.195312 28.421875 22.292969 28.375 Z M 22.292969 28.375 "/>
<path style=" stroke:none;fill-rule:nonzero;fill:rgb(9.803922%,18.039216%,10.196079%);fill-opacity:1;" d="M 28.585938 11.734375 C 29.132812 12.550781 29.242188 13.226562 29.226562 14.1875 C 29.191406 14.1875 29.15625 14.1875 29.121094 14.1875 C 29.03125 13.859375 28.941406 13.527344 28.851562 13.199219 C 28.828125 13.105469 28.800781 13.015625 28.777344 12.917969 C 28.753906 12.828125 28.726562 12.738281 28.703125 12.644531 C 28.679688 12.5625 28.660156 12.480469 28.636719 12.394531 C 28.585938 12.160156 28.585938 12.160156 28.585938 11.734375 Z M 28.585938 11.734375 "/>
<path style=" stroke:none;fill-rule:nonzero;fill:rgb(9.411765%,33.725491%,10.588235%);fill-opacity:1;" d="M 22.828125 17.171875 C 22.898438 17.207031 22.96875 17.242188 23.039062 17.28125 C 22.984375 17.429688 22.984375 17.429688 22.929688 17.585938 C 22.882812 17.71875 22.835938 17.851562 22.785156 17.988281 C 22.738281 18.117188 22.691406 18.25 22.644531 18.382812 C 22.558594 18.632812 22.472656 18.878906 22.394531 19.128906 C 22.292969 19.414062 22.292969 19.414062 22.078125 19.625 C 22.140625 19.035156 22.296875 18.53125 22.511719 17.980469 C 22.542969 17.902344 22.574219 17.824219 22.605469 17.742188 C 22.679688 17.554688 22.753906 17.363281 22.828125 17.171875 Z M 22.828125 17.171875 "/>
<path style=" stroke:none;fill-rule:nonzero;fill:rgb(33.725491%,47.058824%,34.509805%);fill-opacity:1;" d="M 30.613281 11.09375 C 30.984375 11.753906 31.066406 12.378906 31.039062 13.121094 C 30.808594 12.773438 30.738281 12.511719 30.648438 12.105469 C 30.617188 11.984375 30.589844 11.863281 30.558594 11.738281 C 30.507812 11.414062 30.507812 11.414062 30.613281 11.09375 Z M 30.613281 11.09375 "/>
<path style=" stroke:none;fill-rule:nonzero;fill:rgb(45.490196%,58.039218%,46.666667%);fill-opacity:1;" d="M 23.359375 2.453125 C 23.875 2.5 24.265625 2.746094 24.640625 3.09375 C 24.640625 3.164062 24.640625 3.234375 24.640625 3.308594 C 24.300781 3.238281 24.050781 3.121094 23.761719 2.941406 C 23.683594 2.894531 23.609375 2.847656 23.53125 2.800781 C 23.476562 2.757812 23.417969 2.710938 23.359375 2.667969 C 23.359375 2.597656 23.359375 2.527344 23.359375 2.453125 Z M 23.359375 2.453125 "/>
<path style=" stroke:none;fill-rule:nonzero;fill:rgb(12.156863%,21.176471%,12.941177%);fill-opacity:1;" d="M 29.121094 17.386719 C 29.15625 17.386719 29.191406 17.386719 29.226562 17.386719 C 29.257812 19.246094 29.257812 19.246094 29.011719 19.734375 C 28.941406 19.699219 28.871094 19.664062 28.800781 19.625 C 28.90625 18.886719 29.011719 18.148438 29.121094 17.386719 Z M 29.121094 17.386719 "/>
<path style=" stroke:none;fill-rule:nonzero;fill:rgb(13.333334%,39.215687%,13.333334%);fill-opacity:1;" d="M 21.972656 19.625 C 22.007812 19.695312 22.042969 19.765625 22.078125 19.839844 C 21.796875 20.226562 21.515625 20.613281 21.226562 21.011719 C 21.121094 20.585938 21.121094 20.585938 21.242188 20.363281 C 21.300781 20.289062 21.359375 20.214844 21.421875 20.140625 C 21.476562 20.066406 21.535156 19.992188 21.59375 19.914062 C 21.761719 19.734375 21.761719 19.734375 21.972656 19.625 Z M 21.972656 19.625 "/>
<path style=" stroke:none;fill-rule:nonzero;fill:rgb(7.843138%,29.019609%,12.941177%);fill-opacity:1;" d="M 22.933594 15.785156 C 22.96875 15.785156 23.003906 15.785156 23.039062 15.785156 C 23.039062 15.996094 23.039062 16.210938 23.039062 16.425781 C 23.109375 16.425781 23.179688 16.425781 23.253906 16.425781 C 23.21875 16.53125 23.183594 16.636719 23.148438 16.746094 C 23.078125 16.710938 23.007812 16.675781 22.933594 16.640625 C 22.863281 16.816406 22.792969 16.992188 22.71875 17.171875 C 22.648438 17.171875 22.578125 17.171875 22.507812 17.171875 C 22.535156 16.980469 22.566406 16.789062 22.601562 16.601562 C 22.617188 16.492188 22.632812 16.386719 22.652344 16.277344 C 22.71875 16 22.71875 16 22.933594 15.785156 Z M 22.933594 15.785156 "/>
<path style=" stroke:none;fill-rule:nonzero;fill:rgb(7.843138%,15.294118%,8.235294%);fill-opacity:1;" d="M 7.785156 7.894531 C 7.890625 7.894531 7.996094 7.894531 8.105469 7.894531 C 8.070312 8.175781 8.035156 8.457031 8 8.746094 C 7.929688 8.746094 7.859375 8.746094 7.785156 8.746094 C 7.75 8.816406 7.714844 8.886719 7.679688 8.960938 C 7.554688 8.527344 7.589844 8.296875 7.785156 7.894531 Z M 7.785156 7.894531 "/>
<path style=" stroke:none;fill-rule:nonzero;fill:rgb(10.588235%,21.176471%,11.372549%);fill-opacity:1;" d="M 11.199219 3.519531 C 10.734375 3.820312 10.234375 4.089844 9.707031 4.265625 C 9.636719 4.230469 9.566406 4.195312 9.492188 4.160156 C 9.660156 3.824219 9.945312 3.789062 10.285156 3.660156 C 10.410156 3.609375 10.539062 3.5625 10.667969 3.511719 C 10.988281 3.414062 10.988281 3.414062 11.199219 3.519531 Z M 11.199219 3.519531 "/>
<path style=" stroke:none;fill-rule:nonzero;fill:rgb(18.431373%,47.843137%,21.568628%);fill-opacity:1;" d="M 21.121094 11.414062 C 21.003906 11.476562 20.890625 11.539062 20.773438 11.605469 C 20.539062 11.738281 20.34375 11.863281 20.132812 12.035156 C 20.070312 12.074219 20.011719 12.117188 19.945312 12.160156 C 19.839844 12.125 19.734375 12.089844 19.625 12.054688 C 19.765625 11.949219 19.902344 11.84375 20.039062 11.738281 C 20.15625 11.652344 20.15625 11.652344 20.273438 11.5625 C 20.609375 11.320312 20.726562 11.296875 21.121094 11.414062 Z M 21.121094 11.414062 "/>
<path style=" stroke:none;fill-rule:nonzero;fill:rgb(9.411765%,29.803923%,10.196079%);fill-opacity:1;" d="M 20.054688 21.972656 C 20.117188 22.171875 20.117188 22.171875 20.160156 22.398438 C 19.972656 22.667969 19.972656 22.667969 19.734375 22.933594 C 19.625 23.074219 19.519531 23.21875 19.414062 23.359375 C 19.457031 22.75 19.6875 22.441406 20.054688 21.972656 Z M 20.054688 21.972656 "/>
<path style=" stroke:none;fill-rule:nonzero;fill:rgb(43.921569%,56.470591%,44.313726%);fill-opacity:1;" d="M 19.839844 0.960938 C 20 0.988281 20.15625 1.015625 20.3125 1.046875 C 20.445312 1.070312 20.445312 1.070312 20.578125 1.09375 C 20.6875 1.132812 20.6875 1.132812 20.800781 1.171875 C 20.835938 1.277344 20.871094 1.382812 20.90625 1.492188 C 20.660156 1.457031 20.414062 1.421875 20.160156 1.386719 C 20.160156 1.316406 20.160156 1.246094 20.160156 1.171875 C 20.054688 1.171875 19.949219 1.171875 19.839844 1.171875 C 19.839844 1.101562 19.839844 1.03125 19.839844 0.960938 Z M 19.839844 0.960938 "/>
<path style=" stroke:none;fill-rule:nonzero;fill:rgb(2.352941%,12.54902%,4.313726%);fill-opacity:1;" d="M 10.667969 12.800781 C 10.773438 12.800781 10.878906 12.800781 10.988281 12.800781 C 10.988281 13.117188 10.988281 13.433594 10.988281 13.761719 C 10.917969 13.691406 10.847656 13.621094 10.773438 13.546875 C 10.703125 13.617188 10.632812 13.6875 10.558594 13.761719 C 10.550781 13.417969 10.570312 13.128906 10.667969 12.800781 Z M 10.667969 12.800781 "/>
<path style=" stroke:none;fill-rule:nonzero;fill:rgb(21.176471%,33.333334%,20%);fill-opacity:1;" d="M 10.132812 1.707031 C 9.820312 1.972656 9.582031 2.078125 9.171875 2.132812 C 9.171875 2.027344 9.171875 1.921875 9.171875 1.8125 C 9.539062 1.640625 9.746094 1.5625 10.132812 1.707031 Z M 10.132812 1.707031 "/>
<path style=" stroke:none;fill-rule:nonzero;fill:rgb(1.960784%,11.372549%,2.352941%);fill-opacity:1;" d="M 23.253906 10.027344 C 23.253906 10.34375 23.253906 10.660156 23.253906 10.988281 C 23.183594 10.953125 23.113281 10.917969 23.039062 10.878906 C 22.960938 10.632812 22.890625 10.382812 22.828125 10.132812 C 23.039062 10.027344 23.039062 10.027344 23.253906 10.027344 Z M 23.253906 10.027344 "/>
<path style=" stroke:none;fill-rule:nonzero;fill:rgb(39.215687%,50.980395%,40.392157%);fill-opacity:1;" d="M 20.90625 1.28125 C 21.328125 1.386719 21.328125 1.386719 21.761719 1.492188 C 21.726562 1.597656 21.691406 1.703125 21.652344 1.8125 C 21.179688 1.707031 21.179688 1.707031 20.691406 1.601562 C 20.765625 1.566406 20.835938 1.53125 20.90625 1.492188 C 20.90625 1.421875 20.90625 1.351562 20.90625 1.28125 Z M 20.90625 1.28125 "/>
<path style=" stroke:none;fill-rule:nonzero;fill:rgb(3.921569%,14.901961%,5.490196%);fill-opacity:1;" d="M 14.828125 14.078125 C 15.003906 14.078125 15.183594 14.078125 15.359375 14.078125 C 15.289062 14.292969 15.21875 14.503906 15.148438 14.71875 C 15.042969 14.71875 14.933594 14.71875 14.828125 14.71875 C 14.828125 14.507812 14.828125 14.296875 14.828125 14.078125 Z M 14.828125 14.078125 "/>
<path style=" stroke:none;fill-rule:nonzero;fill:rgb(9.411765%,30.588236%,11.764706%);fill-opacity:1;" d="M 22.71875 10.132812 C 22.789062 10.273438 22.859375 10.414062 22.933594 10.558594 C 22.652344 10.558594 22.371094 10.558594 22.078125 10.558594 C 22.300781 10.320312 22.402344 10.238281 22.71875 10.132812 Z M 22.71875 10.132812 "/>
<path style=" stroke:none;fill-rule:nonzero;fill:rgb(35.294119%,48.627451%,35.294119%);fill-opacity:1;" d="M 29.332031 8.214844 C 29.558594 8.488281 29.722656 8.707031 29.761719 9.066406 C 29.691406 9.136719 29.621094 9.207031 29.546875 9.28125 C 29.324219 8.917969 29.3125 8.632812 29.332031 8.214844 Z M 29.332031 8.214844 "/>
<path style=" stroke:none;fill-rule:nonzero;fill:rgb(17.254902%,37.254903%,17.254902%);fill-opacity:1;" d="M 17.492188 11.09375 C 17.597656 11.128906 17.703125 11.164062 17.8125 11.199219 C 17.445312 11.515625 17.445312 11.515625 17.066406 11.839844 C 17.066406 11.519531 17.066406 11.519531 17.28125 11.285156 C 17.351562 11.222656 17.421875 11.160156 17.492188 11.09375 Z M 17.492188 11.09375 "/>
<path style=" stroke:none;fill-rule:nonzero;fill:rgb(9.803922%,30.980393%,12.54902%);fill-opacity:1;" d="M 16.214844 15.894531 C 16.285156 15.894531 16.355469 15.894531 16.425781 15.894531 C 16.390625 16.246094 16.355469 16.597656 16.320312 16.960938 C 16.285156 16.960938 16.25 16.960938 16.214844 16.960938 C 16.199219 16.875 16.183594 16.792969 16.167969 16.707031 C 16.121094 16.429688 16.121094 16.429688 16 16.214844 C 16.070312 16.109375 16.140625 16.003906 16.214844 15.894531 Z M 16.214844 15.894531 "/>
<path style=" stroke:none;fill-rule:nonzero;fill:rgb(6.666667%,27.058825%,10.980392%);fill-opacity:1;" d="M 14.828125 15.148438 C 14.960938 15.417969 14.914062 15.511719 14.832031 15.800781 C 14.8125 15.878906 14.792969 15.953125 14.769531 16.035156 C 14.753906 16.09375 14.738281 16.152344 14.71875 16.214844 C 14.683594 16.214844 14.648438 16.214844 14.613281 16.214844 C 14.539062 15.859375 14.539062 15.859375 14.507812 15.464844 C 14.660156 15.261719 14.660156 15.261719 14.828125 15.148438 Z M 14.828125 15.148438 "/>
<path style=" stroke:none;fill-rule:nonzero;fill:rgb(27.450982%,43.137255%,29.411766%);fill-opacity:1;" d="M 12.90625 0.640625 C 13.257812 0.675781 13.609375 0.710938 13.972656 0.746094 C 13.972656 0.78125 13.972656 0.816406 13.972656 0.851562 C 13.621094 0.886719 13.269531 0.921875 12.90625 0.960938 C 12.90625 0.855469 12.90625 0.75 12.90625 0.640625 Z M 12.90625 0.640625 "/>
</g>
</svg>
